<svg width="1600" height="900" viewBox="0 0 1600 900" fill="none" xmlns="http://www.w3.org/2000/svg">
<path d="M353.197 583.712C346.139 592.601 331.827 587.731 331.657 576.381L329.17 410.373H440.793C461.011 410.373 472.287 433.725 459.715 449.559L353.197 583.712Z" fill="url(#paint0_linear_78_30)"/>
<path d="M353.197 583.712C346.139 592.601 331.827 587.731 331.657 576.381L329.17 410.373H440.793C461.011 410.373 472.287 433.725 459.715 449.559L353.197 583.712Z" fill="url(#paint1_linear_78_30)" fill-opacity="0.2"/>
<path d="M307.803 316.591C314.861 307.701 329.173 312.572 329.343 323.922L330.433 489.93H220.207C199.988 489.93 188.712 466.578 201.285 450.743L307.803 316.591Z" fill="#3ECF8E"/>
<path d="M494 477.391C495.269 489.258 506.063 509.601 537.389 509.601C564.692 509.601 577.817 492.224 577.817 475.272C577.817 460.014 567.444 447.512 546.915 443.273L532.097 440.095C526.383 439.035 522.574 435.857 522.574 430.771C522.574 424.837 528.5 420.387 535.908 420.387C547.76 420.387 552.205 428.228 553.052 434.373L576.546 429.076C575.277 417.844 565.328 398.985 535.697 398.985C513.26 398.985 496.752 414.454 496.752 433.102C496.752 447.723 505.852 459.803 525.959 464.252L539.718 467.431C547.76 469.126 550.936 472.941 550.936 477.603C550.936 483.112 546.491 487.986 537.177 487.986C524.902 487.986 518.762 480.357 518.129 472.093L494 477.391Z" fill="#1C1C1C"/>
<path d="M667.778 506.422H694.659C694.235 502.819 693.599 495.614 693.599 487.561V402.162H665.447V462.768C665.447 474.847 658.252 483.323 645.765 483.323C632.642 483.323 626.715 473.999 626.715 462.344V402.162H598.564V468.066C598.564 490.74 612.956 509.176 638.145 509.176C649.149 509.176 661.218 504.938 666.932 495.19C666.932 499.428 667.354 504.302 667.778 506.422Z" fill="#1C1C1C"/>
<path d="M751.789 546.684V496.25C756.867 503.242 767.452 508.964 781.845 508.964C811.265 508.964 830.947 485.654 830.947 454.079C830.947 423.141 813.381 399.831 782.903 399.831C767.242 399.831 755.6 406.824 750.943 414.876V402.162H723.641V546.684H751.789ZM803.22 454.291C803.22 472.94 791.792 483.747 777.398 483.747C763.009 483.747 751.367 472.728 751.367 454.291C751.367 435.855 763.009 425.048 777.398 425.048C791.792 425.048 803.22 435.855 803.22 454.291Z" fill="#1C1C1C"/>
<path d="M846.892 478.027C846.892 494.344 860.436 509.389 882.662 509.389C898.109 509.389 908.058 502.184 913.348 493.92C913.348 497.946 913.772 503.667 914.408 506.422H940.229C939.594 502.82 938.963 495.403 938.963 489.894V438.611C938.963 417.632 926.685 398.985 893.669 398.985C865.728 398.985 850.699 416.996 849.008 433.314L873.982 438.611C874.83 429.499 881.603 421.659 893.876 421.659C905.732 421.659 911.446 427.804 911.446 435.221C911.446 438.823 909.543 441.79 903.616 442.638L878.006 446.452C860.65 448.995 846.892 459.378 846.892 478.027ZM888.586 488.41C879.487 488.41 875.04 482.477 875.04 476.331C875.04 468.279 880.754 464.252 887.953 463.193L911.446 459.591V464.252C911.446 482.689 900.44 488.41 888.586 488.41Z" fill="#1C1C1C"/>
<path d="M994.644 506.422V493.708C1000.14 502.608 1011.15 508.965 1025.54 508.965C1055.18 508.965 1074.65 485.443 1074.65 453.869C1074.65 422.93 1057.08 399.408 1026.6 399.408C1011.15 399.408 999.722 406.189 995.065 413.606V353H967.339V506.422H994.644ZM1046.5 454.081C1046.5 473.153 1035.07 483.748 1020.68 483.748C1006.5 483.748 994.644 472.941 994.644 454.081C994.644 435.009 1006.5 424.625 1020.68 424.625C1035.07 424.625 1046.5 435.009 1046.5 454.081Z" fill="#1EB873"/>
<path d="M1090.59 478.027C1090.59 494.344 1104.13 509.389 1126.36 509.389C1141.81 509.389 1151.76 502.184 1157.05 493.92C1157.05 497.946 1157.47 503.667 1158.11 506.422H1183.93C1183.3 502.82 1182.66 495.403 1182.66 489.894V438.611C1182.66 417.632 1170.38 398.985 1137.36 398.985C1109.43 398.985 1094.4 416.996 1092.71 433.314L1117.68 438.611C1118.53 429.499 1125.3 421.659 1137.57 421.659C1149.43 421.659 1155.14 427.804 1155.14 435.221C1155.14 438.823 1153.24 441.79 1147.31 442.638L1121.7 446.452C1104.35 448.995 1090.59 459.378 1090.59 478.027ZM1132.29 488.41C1123.18 488.41 1118.74 482.477 1118.74 476.331C1118.74 468.279 1124.45 464.252 1131.65 463.193L1155.14 459.591V464.252C1155.14 482.689 1144.14 488.41 1132.29 488.41Z" fill="#1EB873"/>
<path d="M1202.15 477.391C1203.41 489.258 1214.21 509.601 1245.53 509.601C1272.84 509.601 1285.96 492.224 1285.96 475.272C1285.96 460.014 1275.59 447.512 1255.06 443.273L1240.24 440.095C1234.53 439.035 1230.72 435.857 1230.72 430.771C1230.72 424.837 1236.64 420.387 1244.05 420.387C1255.91 420.387 1260.35 428.228 1261.2 434.373L1284.69 429.076C1283.42 417.844 1273.47 398.985 1243.84 398.985C1221.4 398.985 1204.9 414.454 1204.9 433.102C1204.9 447.723 1214 459.803 1234.11 464.252L1247.86 467.431C1255.91 469.126 1259.08 472.941 1259.08 477.603C1259.08 483.112 1254.64 487.986 1245.32 487.986C1233.05 487.986 1226.91 480.357 1226.28 472.093L1202.15 477.391Z" fill="#1EB873"/>
<path d="M1328.71 442.426C1329.34 432.89 1337.39 421.87 1351.99 421.87C1368.08 421.87 1374.85 432.042 1375.28 442.426H1328.71ZM1378.03 469.55C1374.64 478.874 1367.44 485.443 1354.32 485.443C1340.35 485.443 1328.71 475.484 1328.08 461.71H1402.58C1402.58 461.285 1403 457.047 1403 453.021C1403 419.539 1383.74 398.985 1351.57 398.985C1324.9 398.985 1300.35 420.599 1300.35 453.869C1300.35 489.046 1325.53 509.601 1354.11 509.601C1379.72 509.601 1396.23 494.555 1401.52 476.543L1378.03 469.55Z" fill="#1EB873"/>
<circle cx="515.5" cy="714.5" r="21.5" fill="#E5E5E5"/>
<circle cx="580" cy="542" r="8" fill="#E5E5E5"/>
<circle cx="522" cy="203" r="35" fill="#E5E5E5"/>
<circle cx="858.5" cy="279.5" r="11.5" fill="#E5E5E5"/>
<circle cx="979.5" cy="128.5" r="17.5" fill="#E5E5E5"/>
<circle cx="1467.5" cy="467.5" r="17.5" fill="#E5E5E5"/>
<circle cx="1402.5" cy="717.5" r="17.5" fill="#E5E5E5"/>
<circle cx="985.5" cy="604.5" r="11.5" fill="#E5E5E5"/>
<defs>
<linearGradient id="paint0_linear_78_30" x1="329.17" y1="447.181" x2="428.377" y2="488.788" gradientUnits="userSpaceOnUse">
<stop stop-color="#249361"/>
<stop offset="1" stop-color="#3ECF8E"/>
</linearGradient>
<linearGradient id="paint1_linear_78_30" x1="285.187" y1="386.96" x2="330.43" y2="472.129" gradientUnits="userSpaceOnUse">
<stop/>
<stop offset="1" stop-opacity="0"/>
</linearGradient>
</defs>
</svg>
